G75*
%MOIN*%
%OFA0B0*%
%FSLAX25Y25*%
%IPPOS*%
%LPD*%
%AMOC8*
5,1,8,0,0,1.08239X$1,22.5*
%
%ADD10C,0.00800*%
%ADD11R,0.00787X0.00787*%
%ADD12C,0.00600*%
%ADD13C,0.00500*%
D10*
X0076800Y0034938D02*
X0076800Y0038938D01*
X0076800Y0044937D02*
X0076800Y0048937D01*
X0100550Y0053687D02*
X0100550Y0057687D01*
X0115550Y0057687D02*
X0115550Y0053687D01*
X0135265Y0054536D02*
X0135265Y0059851D01*
X0154950Y0073237D01*
X0155829Y0072719D01*
X0156721Y0072222D01*
X0157625Y0071747D01*
X0158539Y0071294D01*
X0159465Y0070863D01*
X0160400Y0070455D01*
X0161345Y0070069D01*
X0162300Y0069706D01*
X0163263Y0069367D01*
X0164233Y0069051D01*
X0165211Y0068759D01*
X0166196Y0068490D01*
X0167187Y0068245D01*
X0168184Y0068025D01*
X0169186Y0067828D01*
X0170192Y0067656D01*
X0171202Y0067508D01*
X0172215Y0067385D01*
X0173231Y0067286D01*
X0174249Y0067212D01*
X0175269Y0067163D01*
X0176290Y0067138D01*
X0177310Y0067138D01*
X0178331Y0067163D01*
X0179351Y0067212D01*
X0180369Y0067286D01*
X0181385Y0067385D01*
X0182398Y0067508D01*
X0183408Y0067656D01*
X0184414Y0067828D01*
X0185416Y0068025D01*
X0186413Y0068245D01*
X0187404Y0068490D01*
X0188389Y0068759D01*
X0189367Y0069051D01*
X0190337Y0069367D01*
X0191300Y0069706D01*
X0192255Y0070069D01*
X0193200Y0070455D01*
X0194135Y0070863D01*
X0195061Y0071294D01*
X0195975Y0071747D01*
X0196879Y0072222D01*
X0197771Y0072719D01*
X0198650Y0073237D01*
X0218335Y0059851D01*
X0218335Y0054536D01*
X0218335Y0029339D02*
X0218335Y0023630D01*
X0206328Y0013000D01*
X0147272Y0013000D01*
X0135265Y0023630D01*
X0135265Y0029339D01*
X0104300Y0030187D02*
X0104300Y0026187D01*
D11*
X0061406Y0038813D03*
X0061406Y0045062D03*
D12*
X0094302Y0032638D02*
X0114398Y0032638D01*
X0114398Y0051237D02*
X0094302Y0051237D01*
D13*
X0114865Y0031588D02*
X0114867Y0031635D01*
X0114873Y0031682D01*
X0114883Y0031729D01*
X0114896Y0031774D01*
X0114914Y0031818D01*
X0114935Y0031860D01*
X0114959Y0031901D01*
X0114987Y0031939D01*
X0115018Y0031975D01*
X0115052Y0032008D01*
X0115088Y0032038D01*
X0115127Y0032065D01*
X0115168Y0032089D01*
X0115211Y0032109D01*
X0115255Y0032125D01*
X0115301Y0032138D01*
X0115347Y0032147D01*
X0115395Y0032152D01*
X0115442Y0032153D01*
X0115489Y0032150D01*
X0115536Y0032143D01*
X0115582Y0032132D01*
X0115627Y0032118D01*
X0115671Y0032099D01*
X0115712Y0032077D01*
X0115752Y0032052D01*
X0115790Y0032023D01*
X0115825Y0031992D01*
X0115858Y0031957D01*
X0115887Y0031920D01*
X0115913Y0031881D01*
X0115936Y0031839D01*
X0115955Y0031796D01*
X0115971Y0031751D01*
X0115983Y0031705D01*
X0115991Y0031659D01*
X0115995Y0031612D01*
X0115995Y0031564D01*
X0115991Y0031517D01*
X0115983Y0031471D01*
X0115971Y0031425D01*
X0115955Y0031380D01*
X0115936Y0031337D01*
X0115913Y0031295D01*
X0115887Y0031256D01*
X0115858Y0031219D01*
X0115825Y0031184D01*
X0115790Y0031153D01*
X0115752Y0031124D01*
X0115713Y0031099D01*
X0115671Y0031077D01*
X0115627Y0031058D01*
X0115582Y0031044D01*
X0115536Y0031033D01*
X0115489Y0031026D01*
X0115442Y0031023D01*
X0115395Y0031024D01*
X0115347Y0031029D01*
X0115301Y0031038D01*
X0115255Y0031051D01*
X0115211Y0031067D01*
X0115168Y0031087D01*
X0115127Y0031111D01*
X0115088Y0031138D01*
X0115052Y0031168D01*
X0115018Y0031201D01*
X0114987Y0031237D01*
X0114959Y0031275D01*
X0114935Y0031316D01*
X0114914Y0031358D01*
X0114896Y0031402D01*
X0114883Y0031447D01*
X0114873Y0031494D01*
X0114867Y0031541D01*
X0114865Y0031588D01*
M02*
