G75*
%MOIN*%
%OFA0B0*%
%FSLAX25Y25*%
%IPPOS*%
%LPD*%
%AMOC8*
5,1,8,0,0,1.08239X$1,22.5*
%
%ADD10C,0.07000*%
%ADD11C,0.06600*%
%ADD12C,0.01600*%
%ADD13C,0.03569*%
D10*
X0046800Y0041938D03*
X0128050Y0060687D03*
D11*
X0113437Y0022194D03*
X0123050Y0019438D03*
X0132663Y0016681D03*
D12*
X0123731Y0029112D02*
X0075078Y0029112D01*
X0081672Y0027514D02*
X0125330Y0027514D01*
X0126928Y0025915D02*
X0116646Y0025915D01*
X0116213Y0026348D02*
X0114412Y0027094D01*
X0112463Y0027094D01*
X0110662Y0026348D01*
X0109283Y0024969D01*
X0108537Y0023169D01*
X0108537Y0021219D01*
X0108638Y0020976D01*
X0022173Y0041938D01*
X0167373Y0077138D01*
X0189300Y0077138D01*
X0192368Y0077004D01*
X0198410Y0075938D01*
X0204176Y0073840D01*
X0209490Y0070772D01*
X0214190Y0066828D01*
X0218134Y0062127D01*
X0221202Y0056814D01*
X0223301Y0051048D01*
X0224366Y0045005D01*
X0224366Y0038870D01*
X0223301Y0032827D01*
X0221202Y0027061D01*
X0218134Y0021748D01*
X0214190Y0017047D01*
X0209490Y0013103D01*
X0204176Y0010035D01*
X0198410Y0007937D01*
X0192368Y0006871D01*
X0189300Y0006737D01*
X0167373Y0006737D01*
X0136907Y0014123D01*
X0137563Y0015706D01*
X0137563Y0017656D01*
X0136817Y0019457D01*
X0135438Y0020835D01*
X0135063Y0020991D01*
X0135063Y0024052D01*
X0134697Y0024934D01*
X0110659Y0048972D01*
X0109777Y0049337D01*
X0106686Y0049337D01*
X0106217Y0049807D01*
X0104973Y0050322D01*
X0103627Y0050322D01*
X0102383Y0049807D01*
X0101431Y0048855D01*
X0100916Y0047611D01*
X0100916Y0046264D01*
X0101431Y0045020D01*
X0102383Y0044068D01*
X0103627Y0043553D01*
X0104973Y0043553D01*
X0106217Y0044068D01*
X0106686Y0044537D01*
X0108306Y0044537D01*
X0130263Y0022581D01*
X0130263Y0020991D01*
X0129887Y0020835D01*
X0128509Y0019457D01*
X0128036Y0018315D01*
X0128150Y0019036D01*
X0128150Y0019839D01*
X0128024Y0020632D01*
X0127776Y0021395D01*
X0127412Y0022110D01*
X0126940Y0022760D01*
X0126372Y0023328D01*
X0125723Y0023799D01*
X0125008Y0024164D01*
X0124647Y0024281D01*
X0123297Y0019575D01*
X0122913Y0019685D01*
X0124266Y0024405D01*
X0124244Y0024412D01*
X0123451Y0024537D01*
X0122649Y0024537D01*
X0121856Y0024412D01*
X0121092Y0024164D01*
X0120377Y0023799D01*
X0119728Y0023328D01*
X0119160Y0022760D01*
X0118688Y0022110D01*
X0118337Y0021422D01*
X0118337Y0023169D01*
X0117591Y0024969D01*
X0116213Y0026348D01*
X0117862Y0024317D02*
X0121563Y0024317D01*
X0124241Y0024317D02*
X0128527Y0024317D01*
X0132663Y0023575D02*
X0132663Y0016681D01*
X0137156Y0014726D02*
X0211423Y0014726D01*
X0213328Y0016324D02*
X0137563Y0016324D01*
X0137452Y0017923D02*
X0214925Y0017923D01*
X0216266Y0019521D02*
X0136752Y0019521D01*
X0135063Y0021120D02*
X0217607Y0021120D01*
X0218695Y0022718D02*
X0135063Y0022718D01*
X0132663Y0023575D02*
X0109300Y0046937D01*
X0104300Y0046937D01*
X0101199Y0048294D02*
X0048395Y0048294D01*
X0047814Y0047037D02*
X0045786Y0047037D01*
X0043911Y0046261D01*
X0042476Y0044826D01*
X0041700Y0042952D01*
X0041700Y0040923D01*
X0042476Y0039049D01*
X0043911Y0037614D01*
X0045786Y0036838D01*
X0047814Y0036838D01*
X0049689Y0037614D01*
X0051124Y0039049D01*
X0051900Y0040923D01*
X0051900Y0042952D01*
X0051124Y0044826D01*
X0049689Y0046261D01*
X0047814Y0047037D01*
X0048639Y0046696D02*
X0100916Y0046696D01*
X0101399Y0045097D02*
X0050853Y0045097D01*
X0051673Y0043499D02*
X0109345Y0043499D01*
X0110943Y0041900D02*
X0051900Y0041900D01*
X0051643Y0040302D02*
X0112542Y0040302D01*
X0114140Y0038703D02*
X0050778Y0038703D01*
X0048460Y0037105D02*
X0115739Y0037105D01*
X0117337Y0035506D02*
X0048702Y0035506D01*
X0045140Y0037105D02*
X0042109Y0037105D01*
X0042822Y0038703D02*
X0035515Y0038703D01*
X0041957Y0040302D02*
X0028921Y0040302D01*
X0028614Y0043499D02*
X0041927Y0043499D01*
X0041700Y0041900D02*
X0022327Y0041900D01*
X0035208Y0045097D02*
X0042747Y0045097D01*
X0041802Y0046696D02*
X0044961Y0046696D01*
X0054989Y0049893D02*
X0102591Y0049893D01*
X0106009Y0049893D02*
X0223504Y0049893D01*
X0223786Y0048294D02*
X0111337Y0048294D01*
X0112936Y0046696D02*
X0224068Y0046696D01*
X0224350Y0045097D02*
X0114534Y0045097D01*
X0116133Y0043499D02*
X0224366Y0043499D01*
X0224366Y0041900D02*
X0117731Y0041900D01*
X0119330Y0040302D02*
X0224366Y0040302D01*
X0224337Y0038703D02*
X0120928Y0038703D01*
X0122527Y0037105D02*
X0224055Y0037105D01*
X0223773Y0035506D02*
X0124125Y0035506D01*
X0125724Y0033908D02*
X0223491Y0033908D01*
X0223112Y0032309D02*
X0127322Y0032309D01*
X0128921Y0030711D02*
X0222530Y0030711D01*
X0221948Y0029112D02*
X0130519Y0029112D01*
X0132118Y0027514D02*
X0221367Y0027514D01*
X0220540Y0025915D02*
X0133716Y0025915D01*
X0134953Y0024317D02*
X0219617Y0024317D01*
X0209518Y0013127D02*
X0141016Y0013127D01*
X0147610Y0011529D02*
X0206762Y0011529D01*
X0203887Y0009930D02*
X0154204Y0009930D01*
X0160798Y0008332D02*
X0199495Y0008332D01*
X0130263Y0021120D02*
X0127866Y0021120D01*
X0128150Y0019521D02*
X0128573Y0019521D01*
X0123740Y0021120D02*
X0123324Y0021120D01*
X0123783Y0022718D02*
X0124199Y0022718D01*
X0126970Y0022718D02*
X0130125Y0022718D01*
X0119130Y0022718D02*
X0118337Y0022718D01*
X0110229Y0025915D02*
X0088266Y0025915D01*
X0094859Y0024317D02*
X0109013Y0024317D01*
X0108537Y0022718D02*
X0101453Y0022718D01*
X0108047Y0021120D02*
X0108579Y0021120D01*
X0122133Y0030711D02*
X0068484Y0030711D01*
X0061890Y0032309D02*
X0120534Y0032309D01*
X0118936Y0033908D02*
X0055296Y0033908D01*
X0061583Y0051491D02*
X0223139Y0051491D01*
X0222557Y0053090D02*
X0068177Y0053090D01*
X0074771Y0054688D02*
X0221976Y0054688D01*
X0221394Y0056287D02*
X0130753Y0056287D01*
X0130939Y0056364D02*
X0129064Y0055587D01*
X0127036Y0055587D01*
X0125161Y0056364D01*
X0123726Y0057799D01*
X0122950Y0059673D01*
X0122950Y0061702D01*
X0123726Y0063576D01*
X0125161Y0065011D01*
X0127036Y0065787D01*
X0129064Y0065787D01*
X0130939Y0065011D01*
X0132374Y0063576D01*
X0133150Y0061702D01*
X0133150Y0059673D01*
X0132374Y0057799D01*
X0130939Y0056364D01*
X0132410Y0057885D02*
X0220583Y0057885D01*
X0219660Y0059484D02*
X0133072Y0059484D01*
X0133150Y0061082D02*
X0218737Y0061082D01*
X0217670Y0062681D02*
X0132744Y0062681D01*
X0131671Y0064279D02*
X0216328Y0064279D01*
X0214987Y0065878D02*
X0120928Y0065878D01*
X0124429Y0064279D02*
X0114334Y0064279D01*
X0107740Y0062681D02*
X0123356Y0062681D01*
X0122950Y0061082D02*
X0101146Y0061082D01*
X0094552Y0059484D02*
X0123028Y0059484D01*
X0123690Y0057885D02*
X0087959Y0057885D01*
X0081365Y0056287D02*
X0125347Y0056287D01*
X0127522Y0067476D02*
X0213417Y0067476D01*
X0211512Y0069075D02*
X0134116Y0069075D01*
X0140709Y0070673D02*
X0209607Y0070673D01*
X0206891Y0072272D02*
X0147303Y0072272D01*
X0153897Y0073871D02*
X0204091Y0073871D01*
X0199699Y0075469D02*
X0160491Y0075469D01*
X0167085Y0077068D02*
X0190903Y0077068D01*
D13*
X0104300Y0046937D03*
X0091800Y0030687D03*
X0058050Y0033188D03*
X0161800Y0041938D03*
X0176800Y0041938D03*
X0191800Y0041938D03*
M02*
