G75*
%MOIN*%
%OFA0B0*%
%FSLAX25Y25*%
%IPPOS*%
%LPD*%
%AMOC8*
5,1,8,0,0,1.08239X$1,22.5*
%
%ADD10C,0.00500*%
%ADD11C,0.00600*%
%ADD12C,0.00800*%
%ADD13R,0.00787X0.00787*%
D10*
X0102203Y0019770D02*
X0105116Y0019043D01*
X0106670Y0018656D02*
X0109584Y0017929D01*
X0111137Y0017542D02*
X0113322Y0016997D01*
X0114232Y0017544D01*
X0114959Y0020457D01*
X0114412Y0021367D01*
X0112227Y0021912D01*
X0111137Y0017542D01*
X0106670Y0018656D02*
X0107760Y0023026D01*
X0110673Y0022299D01*
X0108672Y0020478D02*
X0107215Y0020841D01*
X0103293Y0024140D02*
X0102203Y0019770D01*
X0120072Y0015314D02*
X0121161Y0019684D01*
X0123346Y0019140D01*
X0123893Y0018230D01*
X0123530Y0016773D01*
X0122620Y0016226D01*
X0120435Y0016771D01*
X0124902Y0015657D02*
X0126722Y0016751D01*
X0127450Y0016569D01*
X0128806Y0015457D02*
X0128443Y0014001D01*
X0128990Y0013091D01*
X0130447Y0012728D01*
X0131356Y0013274D01*
X0131720Y0014731D01*
X0131173Y0015641D01*
X0129716Y0016004D01*
X0128806Y0015457D01*
X0125265Y0017114D02*
X0124539Y0014201D01*
X0132729Y0012159D02*
X0134914Y0011614D01*
X0135824Y0012161D01*
X0136187Y0013617D01*
X0135640Y0014527D01*
X0133455Y0015072D01*
X0133818Y0016529D02*
X0132729Y0012159D01*
X0137377Y0011773D02*
X0137741Y0013230D01*
X0138651Y0013777D01*
X0140107Y0013413D01*
X0140654Y0012504D01*
X0140472Y0011775D01*
X0137559Y0012502D01*
X0137377Y0011773D02*
X0137924Y0010863D01*
X0139381Y0010500D01*
X0092605Y0052287D02*
X0092607Y0052334D01*
X0092613Y0052381D01*
X0092623Y0052428D01*
X0092636Y0052473D01*
X0092654Y0052517D01*
X0092675Y0052559D01*
X0092699Y0052600D01*
X0092727Y0052638D01*
X0092758Y0052674D01*
X0092792Y0052707D01*
X0092828Y0052737D01*
X0092867Y0052764D01*
X0092908Y0052788D01*
X0092951Y0052808D01*
X0092995Y0052824D01*
X0093041Y0052837D01*
X0093087Y0052846D01*
X0093135Y0052851D01*
X0093182Y0052852D01*
X0093229Y0052849D01*
X0093276Y0052842D01*
X0093322Y0052831D01*
X0093367Y0052817D01*
X0093411Y0052798D01*
X0093452Y0052776D01*
X0093492Y0052751D01*
X0093530Y0052722D01*
X0093565Y0052691D01*
X0093598Y0052656D01*
X0093627Y0052619D01*
X0093653Y0052580D01*
X0093676Y0052538D01*
X0093695Y0052495D01*
X0093711Y0052450D01*
X0093723Y0052404D01*
X0093731Y0052358D01*
X0093735Y0052311D01*
X0093735Y0052263D01*
X0093731Y0052216D01*
X0093723Y0052170D01*
X0093711Y0052124D01*
X0093695Y0052079D01*
X0093676Y0052036D01*
X0093653Y0051994D01*
X0093627Y0051955D01*
X0093598Y0051918D01*
X0093565Y0051883D01*
X0093530Y0051852D01*
X0093492Y0051823D01*
X0093453Y0051798D01*
X0093411Y0051776D01*
X0093367Y0051757D01*
X0093322Y0051743D01*
X0093276Y0051732D01*
X0093229Y0051725D01*
X0093182Y0051722D01*
X0093135Y0051723D01*
X0093087Y0051728D01*
X0093041Y0051737D01*
X0092995Y0051750D01*
X0092951Y0051766D01*
X0092908Y0051786D01*
X0092867Y0051810D01*
X0092828Y0051837D01*
X0092792Y0051867D01*
X0092758Y0051900D01*
X0092727Y0051936D01*
X0092699Y0051974D01*
X0092675Y0052015D01*
X0092654Y0052057D01*
X0092636Y0052101D01*
X0092623Y0052146D01*
X0092613Y0052193D01*
X0092607Y0052240D01*
X0092605Y0052287D01*
X0101039Y0059004D02*
X0099949Y0063374D01*
X0098493Y0063011D02*
X0101406Y0063737D01*
X0103504Y0061939D02*
X0104051Y0062849D01*
X0105508Y0063212D01*
X0106418Y0062666D01*
X0106599Y0061937D01*
X0103686Y0061211D01*
X0103868Y0060483D02*
X0103504Y0061939D01*
X0103868Y0060483D02*
X0104778Y0059936D01*
X0106234Y0060299D01*
X0108335Y0061596D02*
X0109245Y0061050D01*
X0111430Y0061594D01*
X0112984Y0061982D02*
X0111894Y0066352D01*
X0112986Y0065077D02*
X0114442Y0065440D01*
X0115352Y0064893D01*
X0115897Y0062708D01*
X0117451Y0063096D02*
X0116724Y0066009D01*
X0118909Y0066554D01*
X0119819Y0066007D01*
X0120364Y0063822D01*
X0121736Y0064938D02*
X0122646Y0064391D01*
X0124103Y0064754D01*
X0124650Y0065664D01*
X0124286Y0067121D01*
X0123377Y0067668D01*
X0121920Y0067304D01*
X0121373Y0066394D01*
X0121736Y0064938D01*
X0126385Y0065323D02*
X0128570Y0065868D01*
X0129117Y0066778D01*
X0128754Y0068235D01*
X0127844Y0068781D01*
X0125659Y0068237D01*
X0125295Y0069693D02*
X0126385Y0065323D01*
X0130852Y0066437D02*
X0132309Y0066800D01*
X0131581Y0066619D02*
X0130491Y0070989D01*
X0129763Y0070807D01*
X0133286Y0069365D02*
X0133649Y0067908D01*
X0134559Y0067361D01*
X0136015Y0067724D01*
X0136562Y0068634D01*
X0136199Y0070091D01*
X0135289Y0070638D01*
X0133832Y0070274D01*
X0133286Y0069365D01*
X0137753Y0070478D02*
X0138116Y0069022D01*
X0139026Y0068475D01*
X0141211Y0069020D01*
X0141392Y0068291D02*
X0140484Y0071933D01*
X0138299Y0071388D01*
X0137753Y0070478D01*
X0142038Y0072320D02*
X0142583Y0070135D01*
X0143493Y0069589D01*
X0145678Y0070133D01*
X0145860Y0069405D02*
X0145313Y0068495D01*
X0144585Y0068314D01*
X0145860Y0069405D02*
X0144952Y0073047D01*
X0141392Y0068291D02*
X0140846Y0067381D01*
X0140117Y0067200D01*
X0112986Y0065077D02*
X0112439Y0064167D01*
X0110703Y0064508D02*
X0108518Y0063963D01*
X0107972Y0063053D01*
X0108335Y0061596D01*
D11*
X0114298Y0032638D02*
X0094202Y0032638D01*
X0094202Y0051237D02*
X0114298Y0051237D01*
D12*
X0104300Y0053687D02*
X0104300Y0057687D01*
X0076800Y0048937D02*
X0076800Y0044937D01*
X0076800Y0038938D02*
X0076800Y0034938D01*
X0104300Y0030187D02*
X0104300Y0026187D01*
X0135265Y0023630D02*
X0135265Y0029339D01*
X0135265Y0023630D02*
X0147272Y0013000D01*
X0206328Y0013000D01*
X0218335Y0023630D01*
X0218335Y0029339D01*
X0218335Y0054536D02*
X0218335Y0059851D01*
X0198650Y0073237D01*
X0197771Y0072719D01*
X0196879Y0072222D01*
X0195975Y0071747D01*
X0195061Y0071294D01*
X0194135Y0070863D01*
X0193200Y0070455D01*
X0192255Y0070069D01*
X0191300Y0069706D01*
X0190337Y0069367D01*
X0189367Y0069051D01*
X0188389Y0068759D01*
X0187404Y0068490D01*
X0186413Y0068245D01*
X0185416Y0068025D01*
X0184414Y0067828D01*
X0183408Y0067656D01*
X0182398Y0067508D01*
X0181385Y0067385D01*
X0180369Y0067286D01*
X0179351Y0067212D01*
X0178331Y0067163D01*
X0177310Y0067138D01*
X0176290Y0067138D01*
X0175269Y0067163D01*
X0174249Y0067212D01*
X0173231Y0067286D01*
X0172215Y0067385D01*
X0171202Y0067508D01*
X0170192Y0067656D01*
X0169186Y0067828D01*
X0168184Y0068025D01*
X0167187Y0068245D01*
X0166196Y0068490D01*
X0165211Y0068759D01*
X0164233Y0069051D01*
X0163263Y0069367D01*
X0162300Y0069706D01*
X0161345Y0070069D01*
X0160400Y0070455D01*
X0159465Y0070863D01*
X0158539Y0071294D01*
X0157625Y0071747D01*
X0156721Y0072222D01*
X0155829Y0072719D01*
X0154950Y0073237D01*
X0135265Y0059851D01*
X0135265Y0054536D01*
D13*
X0061406Y0045062D03*
X0061406Y0038813D03*
M02*
