G75*
%MOIN*%
%OFA0B0*%
%FSLAX25Y25*%
%IPPOS*%
%LPD*%
%AMOC8*
5,1,8,0,0,1.08239X$1,22.5*
%
%ADD10C,0.00000*%
D10*
X0001800Y0041938D02*
X0166800Y0001937D01*
X0189300Y0001937D01*
X0189300Y0001938D02*
X0190274Y0001950D01*
X0191248Y0001985D01*
X0192220Y0002045D01*
X0193190Y0002128D01*
X0194159Y0002234D01*
X0195124Y0002364D01*
X0196086Y0002518D01*
X0197044Y0002695D01*
X0197997Y0002895D01*
X0198945Y0003118D01*
X0199888Y0003365D01*
X0200824Y0003634D01*
X0201753Y0003926D01*
X0202675Y0004240D01*
X0203589Y0004577D01*
X0204495Y0004936D01*
X0205391Y0005317D01*
X0206278Y0005720D01*
X0207155Y0006144D01*
X0208021Y0006590D01*
X0208877Y0007056D01*
X0209720Y0007543D01*
X0210552Y0008051D01*
X0211371Y0008578D01*
X0212177Y0009125D01*
X0212969Y0009692D01*
X0213747Y0010278D01*
X0214511Y0010883D01*
X0215259Y0011506D01*
X0215993Y0012147D01*
X0216710Y0012806D01*
X0217412Y0013482D01*
X0218096Y0014175D01*
X0218764Y0014884D01*
X0219414Y0015610D01*
X0220046Y0016351D01*
X0220660Y0017107D01*
X0221255Y0017878D01*
X0221832Y0018664D01*
X0222389Y0019463D01*
X0222926Y0020275D01*
X0223444Y0021100D01*
X0223941Y0021938D01*
X0224418Y0022787D01*
X0224874Y0023648D01*
X0225309Y0024520D01*
X0225722Y0025402D01*
X0226114Y0026294D01*
X0226484Y0027195D01*
X0226832Y0028105D01*
X0227158Y0029023D01*
X0227461Y0029948D01*
X0227742Y0030881D01*
X0227999Y0031821D01*
X0228234Y0032766D01*
X0228446Y0033717D01*
X0228635Y0034673D01*
X0228800Y0035633D01*
X0228942Y0036596D01*
X0229060Y0037563D01*
X0229155Y0038533D01*
X0229226Y0039504D01*
X0229273Y0040477D01*
X0229297Y0041451D01*
X0229297Y0042425D01*
X0229273Y0043399D01*
X0229226Y0044372D01*
X0229155Y0045343D01*
X0229060Y0046313D01*
X0228942Y0047280D01*
X0228800Y0048243D01*
X0228635Y0049203D01*
X0228446Y0050159D01*
X0228234Y0051110D01*
X0227999Y0052055D01*
X0227742Y0052995D01*
X0227461Y0053928D01*
X0227158Y0054853D01*
X0226832Y0055771D01*
X0226484Y0056681D01*
X0226114Y0057582D01*
X0225722Y0058474D01*
X0225309Y0059356D01*
X0224874Y0060228D01*
X0224418Y0061089D01*
X0223941Y0061938D01*
X0223444Y0062776D01*
X0222926Y0063601D01*
X0222389Y0064413D01*
X0221832Y0065212D01*
X0221255Y0065998D01*
X0220660Y0066769D01*
X0220046Y0067525D01*
X0219414Y0068266D01*
X0218764Y0068992D01*
X0218096Y0069701D01*
X0217412Y0070394D01*
X0216710Y0071070D01*
X0215993Y0071729D01*
X0215259Y0072370D01*
X0214511Y0072993D01*
X0213747Y0073598D01*
X0212969Y0074184D01*
X0212177Y0074751D01*
X0211371Y0075298D01*
X0210552Y0075825D01*
X0209720Y0076333D01*
X0208877Y0076820D01*
X0208021Y0077286D01*
X0207155Y0077732D01*
X0206278Y0078156D01*
X0205391Y0078559D01*
X0204495Y0078940D01*
X0203589Y0079299D01*
X0202675Y0079636D01*
X0201753Y0079950D01*
X0200824Y0080242D01*
X0199888Y0080511D01*
X0198945Y0080758D01*
X0197997Y0080981D01*
X0197044Y0081181D01*
X0196086Y0081358D01*
X0195124Y0081512D01*
X0194159Y0081642D01*
X0193190Y0081748D01*
X0192220Y0081831D01*
X0191248Y0081891D01*
X0190274Y0081926D01*
X0189300Y0081938D01*
X0166800Y0081938D01*
X0001800Y0041938D01*
M02*
