G75*
%MOIN*%
%OFA0B0*%
%FSLAX25Y25*%
%IPPOS*%
%LPD*%
%AMOC8*
5,1,8,0,0,1.08239X$1,22.5*
%
%ADD10C,0.00500*%
D10*
X0064236Y0040771D02*
X0064820Y0040188D01*
X0065988Y0040188D01*
X0066572Y0040771D01*
X0066572Y0043107D01*
X0065988Y0043690D01*
X0064820Y0043690D01*
X0064236Y0043107D01*
X0070255Y0043690D02*
X0070255Y0040188D01*
X0067920Y0040188D01*
X0072187Y0040771D02*
X0072187Y0043690D01*
X0072770Y0043690D02*
X0071603Y0043690D01*
X0075286Y0043107D02*
X0075870Y0043690D01*
X0077037Y0043690D01*
X0077621Y0043107D01*
X0077621Y0040771D01*
X0077037Y0040188D01*
X0075870Y0040188D01*
X0075286Y0040771D01*
X0073938Y0040771D02*
X0073354Y0040188D01*
X0072770Y0040188D01*
X0072187Y0040771D01*
X0078969Y0040188D02*
X0081304Y0040188D01*
X0081304Y0043690D01*
X0082652Y0043690D02*
X0083820Y0043690D01*
X0083236Y0043690D02*
X0083236Y0040771D01*
X0083820Y0040188D01*
X0084404Y0040188D01*
X0084988Y0040771D01*
X0086335Y0040771D02*
X0086919Y0040188D01*
X0088087Y0040188D01*
X0088671Y0040771D01*
X0088671Y0043107D01*
X0088087Y0043690D01*
X0086919Y0043690D01*
X0086335Y0043107D01*
X0092354Y0043690D02*
X0092354Y0040188D01*
X0090018Y0040188D01*
X0094285Y0040771D02*
X0094869Y0040188D01*
X0095453Y0040188D01*
X0096037Y0040771D01*
X0097385Y0040771D02*
X0097969Y0040188D01*
X0099136Y0040188D01*
X0099720Y0040771D01*
X0099720Y0043107D01*
X0099136Y0043690D01*
X0097969Y0043690D01*
X0097385Y0043107D01*
X0094869Y0043690D02*
X0093702Y0043690D01*
X0094285Y0043690D02*
X0094285Y0040771D01*
X0101068Y0040188D02*
X0103403Y0040188D01*
X0103403Y0043690D01*
X0104751Y0043690D02*
X0105919Y0043690D01*
X0105335Y0043690D02*
X0105335Y0040771D01*
X0105919Y0040188D01*
X0106503Y0040188D01*
X0107086Y0040771D01*
M02*
